<?xml version="1.0" encoding="UTF-8"?>
<svg width="131px" height="84px" viewBox="0 0 131 84" version="1.1" xmlns="http://www.w3.org/2000/svg" xmlns:xlink="http://www.w3.org/1999/xlink">
    <!-- Generator: Sketch 49.2 (51160) - http://www.bohemiancoding.com/sketch -->
    <title>no results</title>
    <desc>Created with Sketch.</desc>
    <defs>
        <filter x="-25.0%" y="-25.0%" width="150.0%" height="150.0%" filterUnits="objectBoundingBox" id="filter-1">
            <feOffset dx="0" dy="0" in="SourceAlpha" result="shadowOffsetOuter1"></feOffset>
            <feGaussianBlur stdDeviation="5" in="shadowOffsetOuter1" result="shadowBlurOuter1"></feGaussianBlur>
            <feColorMatrix values="0 0 0 0 0   0 0 0 0 0   0 0 0 0 0  0 0 0 0.2 0" type="matrix" in="shadowBlurOuter1" result="shadowMatrixOuter1"></feColorMatrix>
            <feMerge>
                <feMergeNode in="shadowMatrixOuter1"></feMergeNode>
                <feMergeNode in="SourceGraphic"></feMergeNode>
            </feMerge>
        </filter>
    </defs>
    <g id="+Empty-States-/-Landings" stroke="none" stroke-width="1" fill="none" fill-rule="evenodd">
        <g id="Clients-/-No-results" transform="translate(-715.000000, -223.000000)">
            <g id="no-results" transform="translate(714.000000, 222.000000)">
                <g id="bg">
                    <g id="Elements" transform="translate(66.391286, 36.066412) scale(-1, -1) translate(-66.391286, -36.066412) translate(0.891286, 0.566412)" fill="#DADADA">
                        <path d="M3.32182202,25.4968173 L3.26859444,25.4935825 C2.4149845,25.4015801 1.99393386,24.8866523 1.9362391,24.1832812 L1.92919761,24.098651 L0.138388464,24.098651 L0.142098494,24.19449 C0.209030478,25.8717479 1.41077759,27.1588794 3.26594442,27.2748792 L3.32182202,27.2772865 L3.32182202,25.4968173 Z" id="Fill-40"></path>
                        <path d="M11.5454869,37.2417373 C11.5454869,37.2417373 11.4433073,37.236287 11.3835658,37.2340608 L11.3835658,39.0509384 C11.3911733,39.0509384 11.4556136,39.054316 11.4556136,39.054316 C12.3949947,39.1214088 13.091233,39.8063842 13.1209919,40.7305598 L14.8853427,40.7305598 C14.8558076,38.8367636 13.4911506,37.3538144 11.5454869,37.2417373" id="Fill-42"></path>
                        <path d="M24.7888926,7.25188302 C23.99445,7.25188302 23.2431639,7.56842763 22.6738434,8.14337442 C22.1052761,8.71715055 21.7810369,9.48338205 21.7613792,10.3016686 L21.7592703,10.3878287 C21.7591197,10.4025789 21.7591197,10.417017 21.759195,10.4305185 L23.540515,10.4305185 C23.5401384,10.4191241 23.5399878,10.408042 23.5399878,10.3969598 L23.5399878,10.368786 C23.5455612,9.65812154 24.1057683,9.08005302 24.7888926,9.08005302 C25.4806783,9.08005302 26.0436722,9.66350655 26.0436722,10.3807267 L26.0436722,10.4305185 L27.8076693,10.4305185 L27.8076693,10.3800243 C27.8076693,8.65510593 26.4533208,7.25188302 24.7888926,7.25188302" id="Fill-44"></path>
                        <path d="M115.459435,29.0723929 L115.459435,29.072613 C115.459435,27.9521444 116.372627,27.0398468 117.495063,27.0398468 L117.495063,25.2582504 C115.388878,25.2582504 113.675384,26.9693314 113.674943,29.0723929 L115.459435,29.0723929 Z" id="Fill-48"></path>
                        <polygon id="Fill-50" points="43.6571321 37.3781171 45.5671922 37.3781171 45.5671922 26.5707565 43.6571321 26.5707565"></polygon>
                        <polygon id="Fill-52" points="105.415743 7.31948599 107.325803 7.31948599 107.325803 0.00862441306 105.415743 0.00862441306"></polygon>
                        <path d="M61.6937389,47.3093363 C60.5245478,47.3093363 59.5733025,46.3588368 59.5733025,45.1916371 C59.5733025,44.0242082 60.5245478,43.0750081 61.6937389,43.0750081 C62.8629301,43.0750081 63.8140223,44.0242082 63.8140223,45.1916371 L63.8140223,45.1924015 L65.6728012,45.1924015 L65.6728012,45.1916371 C65.6728012,43.0013989 63.8880489,41.2190307 61.6937389,41.2190307 C59.4996587,41.2190307 57.7142173,43.0013989 57.7142173,45.1916371 C57.7142173,47.3826398 59.4996587,49.1656194 61.6937389,49.1656194 L61.6937389,47.3093363 Z" id="Fill-53"></path>
                        <path d="M83.8761969,36.7021452 L83.8761969,36.7013381 C83.8761969,37.8217292 82.9630957,38.7339774 81.8406074,38.7339774 L81.8406074,40.5157007 C83.9469725,40.5157007 85.6602132,38.8043365 85.6607276,36.7021452 L83.8761969,36.7021452 Z" id="Fill-54"></path>
                        <path d="M117.494622,63.129806 L117.495063,63.129806 C116.281067,63.0840125 115.459856,62.5751471 115.459856,61.1768312 L113.674943,61.1768312 C113.674943,63.4922644 115.118952,64.9911938 117.494622,64.9911938 L117.494622,63.129806 Z" id="Fill-55"></path>
                        <path d="M85.6607276,64.3719014 L85.6613155,64.3719014 C86.7833155,64.3719014 87.696773,65.3224957 87.696773,66.4894884 C87.696773,67.6566341 86.7833155,68.6068461 85.6613155,68.6068461 L85.6607276,68.6068461 L85.6607276,70.462477 L85.6613155,70.462477 C87.8149325,70.462477 89.4808479,68.6801511 89.4808479,66.4894884 C89.4808479,64.2982143 87.7678304,62.5158884 85.6613155,62.5158884 L85.6607276,62.5158884 L85.6607276,64.3719014 Z" id="Fill-56"></path>
                        <path d="M7.42536024,55.1020224 C5.49494682,55.1020224 3.9243397,56.899372 3.9243397,58.8425802 L3.92305387,58.6833233 L3.92305387,59.3701377 L5.76035786,59.3701377 L5.76035786,58.6833233 L5.7610386,58.6833233 C5.7610386,57.7595267 6.50757807,57.0080047 7.42536024,57.0080047 C8.34336932,57.0080047 9.08960625,57.7595267 9.08960625,58.6833233 L9.08960625,62.7307475 L10.9266077,62.7307475 L10.9266077,58.6833233 C10.9266077,56.5402827 9.43700806,55.1020224 7.42536024,55.1020224" id="Fill-57"></path>
                        <path d="M130.547141,33.857001 L130.546701,33.857001 C129.329688,33.857001 128.46055,34.7381887 128.46055,35.974588 C128.46055,37.1998272 129.340836,38.0919457 130.546701,38.0919457 L130.547141,38.0919457 L130.547141,39.9475765 L130.546701,39.9475765 C128.444414,39.9475765 126.719928,38.1372739 126.727042,36.0588236 C126.734524,33.867626 128.444414,32.0009879 130.546701,32.0009879 L130.547141,32.0009879 L130.547141,33.857001 Z" id="Fill-59"></path>
                    </g>
                    <path d="M107.842291,70.8076336 L77.4691137,70.8076336 C76.2686119,70.7124215 75.0371266,70.7018908 73.7653979,70.8076335 L33.1737175,70.8076336 C23.5697641,60.6682224 18.4091679,50.0393857 24.5503869,34.8842992 C30.9595605,19.0679636 46.6175132,22.7822862 58.2913577,25.3521729 C69.9652022,27.9220597 80.4368855,13.5625947 90.2692458,25.7047103 C100.101606,37.8468258 91.7448316,43.9527225 103.296485,48.937046 C112.452706,52.8877851 113.63957,64.6226691 107.842291,70.8076336 Z" fill="#F2F2F2"></path>
                </g>
                <g id="search" filter="url(#filter-1)" transform="translate(66.000000, 46.000000) scale(-1, 1) translate(-66.000000, -46.000000) translate(36.000000, 16.000000)" fill-rule="nonzero">
                    <rect id="Rectangle-path" fill="#C6C6C6" transform="translate(25.549119, 34.336806) rotate(-135.000000) translate(-25.549119, -34.336806) " x="24.5510586" y="28.1223626" width="1.99612121" height="12.4288867"></rect>
                    <circle id="Oval" fill="#979797" cx="41.425848" cy="18.4574269" r="18.4573099"></circle>
                    <circle id="Oval" fill="#F7F7F7" cx="41.425848" cy="18.4574269" r="14.5050292"></circle>
                    <path d="M34.0207018,12.0500585 C33.7653801,12.0500585 33.5099415,11.9526316 33.3149708,11.7577778 C32.9251462,11.3679532 32.9251462,10.7360234 33.3149708,10.3464327 C35.4814035,8.17988304 38.3621053,6.98654971 41.4260819,6.98654971 C44.4900585,6.98654971 47.3706433,8.17964912 49.537076,10.3463158 C49.9269006,10.7361404 49.9269006,11.3680702 49.537076,11.7576608 C49.1472515,12.1472515 48.5153216,12.1474854 48.125731,11.7575439 C46.3360234,9.96795322 43.9568421,8.9825731 41.4259649,8.9825731 C38.8950877,8.9825731 36.5157895,9.96807018 34.7263158,11.7576608 C34.531462,11.9525146 34.2760234,12.0500585 34.0207018,12.0500585 Z" id="Shape" fill="#E9E9E9"></path>
                    <path d="M22.0354386,43.6554386 L6.63918129,59.0516959 C5.03578947,60.6550877 3.37204678,59.7178947 1.76865497,58.1145029 C0.165263158,56.5111111 -0.771929825,54.8473684 0.831461988,53.2439766 L16.2277193,37.8477193 L21.0134503,38.8695906 L22.0354386,43.6554386 Z" id="Shape" fill="#717171"></path>
                    <path d="M23.9106433,41.78 L22.0352047,43.6554386 L16.2274854,37.8477193 L18.102924,35.9722807 C19.7063158,34.3688889 22.3072515,34.3688889 23.9106433,35.9722807 C25.514152,37.5757895 25.514152,40.1766082 23.9106433,41.78 Z" id="Shape" fill="#C6C6C6"></path>
                </g>
            </g>
        </g>
    </g>
</svg>